<svg width="17" height="16" viewBox="0 0 17 16" fill="none" xmlns="http://www.w3.org/2000/svg">
    <path
        d="M7.96029 11.087C7.92163 11.0494 7.75629 10.9071 7.62029 10.7746C6.76496 9.99789 5.36496 7.97159 4.93763 6.91102C4.86896 6.74996 4.72363 6.34275 4.71429 6.12518C4.71429 5.91671 4.76229 5.71797 4.85963 5.52833C4.99563 5.29193 5.20963 5.10229 5.46229 4.99838C5.63763 4.93148 6.16229 4.82757 6.17163 4.82757C6.74563 4.72366 7.67829 4.6665 8.70896 4.6665C9.69096 4.6665 10.5856 4.72366 11.1683 4.80873C11.1776 4.81848 11.8296 4.92239 12.053 5.03604C12.461 5.24452 12.7143 5.65173 12.7143 6.08751V6.12518C12.7043 6.40899 12.451 7.00584 12.4416 7.00584C12.0136 8.00925 10.6823 9.9888 9.79763 10.7844C9.79763 10.7844 9.57029 11.0084 9.42829 11.1059C9.22429 11.2578 8.97163 11.3332 8.71896 11.3332C8.43696 11.3332 8.17429 11.2481 7.96029 11.087Z"
        fill="#ffffff" opacity="0.38" />
</svg>